HIERARCHY
ROOT Hips
{
	OFFSET 54.475800 -37.102116 91.561989
	CHANNELS 6 Xposition Yposition Zposition Xrotation Yrotation Zrotation
	JOINT spine
	{
		OFFSET 0.000000 -0.393700 6.846367
		CHANNELS 3 Xrotation Yrotation Zrotation
		JOINT spine1
		{
			OFFSET 0.000000 -0.000004 9.496208
			CHANNELS 3 Xrotation Yrotation Zrotation
			JOINT spine2
			{
				OFFSET 0.000000 0.000000 9.099091
				CHANNELS 3 Xrotation Yrotation Zrotation
				JOINT Neck
				{
					OFFSET 0.000000 -1.113785 23.361214
					CHANNELS 3 Xrotation Yrotation Zrotation
					JOINT Head
					{
						OFFSET 0.000000 0.000000 7.058014
						CHANNELS 3 Xrotation Yrotation Zrotation
						End Site
						{
							OFFSET 0.000000 5.634186 17.084396
						}
					}
				}
				JOINT RightShoulder
				{
					OFFSET -3.831360 0.533489 9.826309
					CHANNELS 3 Xrotation Yrotation Zrotation
					JOINT RightArm
					{
						OFFSET 0.000000 -0.000004 12.888115
						CHANNELS 3 Xrotation Yrotation Zrotation
						JOINT RightArmRoll
						{
							OFFSET 0.000000 0.000000 6.506165
							CHANNELS 3 Xrotation Yrotation Zrotation
							JOINT RightForeArm
							{
								OFFSET 0.000000 -0.000004 18.950104
								CHANNELS 3 Xrotation Yrotation Zrotation
								JOINT RightForeArmRoll
								{
									OFFSET 0.000000 0.000000 7.300919
									CHANNELS 3 Xrotation Yrotation Zrotation
									JOINT RightHand
									{
										OFFSET 0.000000 -0.000004 14.651398
										CHANNELS 3 Xrotation Yrotation Zrotation
										End Site
										{
											OFFSET 0.000000 0.000000 0.100006
										}
									}
								}
							}
						}
					}
				}
				JOINT LeftShoulder
				{
					OFFSET 3.831360 0.533489 9.826309
					CHANNELS 3 Xrotation Yrotation Zrotation
					JOINT LeftArm
					{
						OFFSET 0.000000 -0.000004 12.888115
						CHANNELS 3 Xrotation Yrotation Zrotation
						JOINT LeftArmRoll
						{
							OFFSET 0.000000 0.000000 6.506165
							CHANNELS 3 Xrotation Yrotation Zrotation
							JOINT LeftForeArm
							{
								OFFSET 0.000000 -0.000004 18.950104
								CHANNELS 3 Xrotation Yrotation Zrotation
								JOINT LeftForeArmRoll
								{
									OFFSET 0.000000 0.000000 7.300919
									CHANNELS 3 Xrotation Yrotation Zrotation
									JOINT LeftHand
									{
										OFFSET 0.000000 -0.000004 14.651398
										CHANNELS 3 Xrotation Yrotation Zrotation
										End Site
										{
											OFFSET 0.000000 0.000000 0.100006
										}
									}
								}
							}
						}
					}
				}
			}
		}
	}
	JOINT RightUpLeg
	{
		OFFSET -6.068371 0.933475 -1.112778
		CHANNELS 3 Xrotation Yrotation Zrotation
		JOINT RightUpLegRoll
		{
			OFFSET 0.000000 -0.000004 17.179596
			CHANNELS 3 Xrotation Yrotation Zrotation
			JOINT RightLeg
			{
				OFFSET 0.000000 0.000004 -21.274300
				CHANNELS 3 Xrotation Yrotation Zrotation
				JOINT RightLegRoll
				{
					OFFSET 0.000000 -0.000004 21.343903
					CHANNELS 3 Xrotation Yrotation Zrotation
					JOINT RightFoot
					{
						OFFSET 0.000000 0.000000 17.765198
						CHANNELS 3 Xrotation Yrotation Zrotation
						JOINT RightToeBase
						{
							OFFSET 0.000000 -0.000004 14.850815
							CHANNELS 3 Xrotation Yrotation Zrotation
							End Site
							{
								OFFSET 0.006294 0.829006 7.192123
							}
						}
					}
				}
			}
		}
	}
	JOINT LeftUpLeg
	{
		OFFSET 6.068371 0.933475 -1.112778
		CHANNELS 3 Xrotation Yrotation Zrotation
		JOINT LeftUpLegRoll
		{
			OFFSET 0.000000 -0.000004 17.179703
			CHANNELS 3 Xrotation Yrotation Zrotation
			JOINT LeftLeg
			{
				OFFSET 0.000000 -0.000004 21.274208
				CHANNELS 3 Xrotation Yrotation Zrotation
				JOINT LeftLegRoll
				{
					OFFSET 0.000000 0.000000 21.541199
					CHANNELS 3 Xrotation Yrotation Zrotation
					JOINT LeftFoot
					{
						OFFSET 0.000000 -0.000004 17.567902
						CHANNELS 3 Xrotation Yrotation Zrotation
						JOINT LeftToeBase
						{
							OFFSET 0.000000 -0.000004 14.850800
							CHANNELS 3 Xrotation Yrotation Zrotation
							End Site
							{
								OFFSET -0.028210 0.829006 7.192123
							}
						}
					}
				}
			}
		}
	}
}
MOTION
Frames: 10
Frame Time: 0.041667
53.413696 6.182934 57.582096 -23.508236 2.049181 -2.099203 1.779593 -0.461607 0.309917 7.565170 -0.909919 0.627966 9.210311 -0.902332 0.638836 38.689221 0.270890 -0.143456 -17.989281 1.477305 -0.010228 33.171312 -75.359608 33.444291 93.500768 -68.556207 83.268202 0.000000 -0.000004 -0.000007 42.287378 -15.350476 5.100412 0.000001 0.000009 -2.999990 -4.999616 -7.998759 -0.000070 19.036695 70.580040 -19.504427 -69.560839 115.142100 68.270862 -0.000003 0.000003 0.000003 35.366337 18.676353 -4.823248 0.000008 -0.000020 3.000001 -4.999964 7.999085 -0.000031 -59.336230 -174.995922 4.152061 179.999950 -0.000005 -1.335994 107.452645 -1.318081 -3.263671 0.000000 -0.000004 1.415249 66.539587 7.051687 1.895185 25.456957 -7.355615 0.000002 -61.221902 162.275528 -4.855426 -0.000019 -0.000004 -1.005150 -78.538139 -0.223010 2.971561 -0.000000 -0.000001 -1.582940 67.137222 -7.016905 -1.945162 25.456953 7.355613 -0.000011 
53.414700 6.190777 57.586498 -23.501885 2.046252 -2.101375 1.779568 -0.461228 0.309604 7.565659 -0.909168 0.627498 9.210789 -0.901586 0.638379 38.761515 0.297369 -0.145936 -18.053640 1.456979 -0.009241 33.311741 -75.308921 33.604698 93.529195 -68.586396 83.299143 0.000001 -0.000003 -0.000006 42.306321 -15.345999 5.100280 -0.000000 0.000009 -2.999991 -4.999617 -7.998761 -0.000069 19.122125 70.589281 -19.595104 -69.674664 115.118044 68.434391 -0.000003 0.000004 0.000001 35.377921 18.710566 -4.840687 0.000007 -0.000021 3.000002 -4.999966 7.999086 -0.000031 -59.325992 -175.002752 4.150660 179.999950 -0.000006 -1.337004 107.456914 -1.309046 -3.258013 -0.000000 -0.000004 1.415209 66.529676 7.051803 1.896046 25.456959 -7.355615 0.000001 -61.235077 162.276197 -4.852066 -0.000019 -0.000006 -1.005150 -78.544874 -0.224698 2.972258 -0.000000 -0.000001 -1.582870 67.138485 -7.016919 -1.945186 25.456953 7.355613 -0.000010 
53.414997 6.187408 57.586494 -23.495639 2.043359 -2.103607 1.779481 -0.460789 0.309285 7.566006 -0.908297 0.627000 9.211150 -0.900720 0.637897 38.834430 0.322691 -0.148174 -18.118205 1.437795 -0.008074 33.456541 -75.258234 33.769678 93.558442 -68.617754 83.333028 0.000001 -0.000001 -0.000007 42.325439 -15.341004 5.099786 -0.000001 0.000008 -2.999992 -4.999615 -7.998759 -0.000071 19.208514 70.599123 -19.686658 -69.788974 115.093414 68.596812 -0.000004 0.000003 0.000003 35.389006 18.744022 -4.857719 0.000007 -0.000022 3.000000 -4.999962 7.999085 -0.000029 -59.314353 -175.009391 4.149090 179.999950 -0.000005 -1.337004 107.461402 -1.299716 -3.252386 -0.000002 -0.000005 1.415139 66.519233 7.051896 1.896937 25.456953 -7.355615 0.000002 -61.247508 162.277112 -4.849975 -0.000020 -0.000005 -1.005150 -78.551397 -0.226243 2.973129 0.000000 -0.000001 -1.582779 67.139960 -7.016921 -1.945091 25.456957 7.355615 -0.000012 
53.412697 6.187138 57.586891 -23.489388 2.040492 -2.105896 1.779320 -0.460306 0.308963 7.566276 -0.907341 0.626483 9.211407 -0.899770 0.637397 38.907650 0.347201 -0.150262 -18.182872 1.419391 -0.006800 33.604176 -75.207548 33.937608 93.587976 -68.650108 83.368572 0.000000 -0.000003 -0.000008 42.344512 -15.335791 5.099072 -0.000001 0.000009 -2.999990 -4.999618 -7.998764 -0.000071 19.295761 70.609567 -19.779043 -69.904090 115.068456 68.758920 -0.000005 0.000003 0.000002 35.399784 18.777030 -4.874543 0.000007 -0.000022 3.000001 -4.999965 7.999082 -0.000031 -59.301751 -175.016412 4.148143 179.999950 -0.000006 -1.337005 107.466108 -1.290106 -3.246828 -0.000001 -0.000004 1.415050 66.508475 7.051986 1.897947 25.456957 -7.355613 0.000002 -61.259953 162.277385 -4.847124 -0.000020 -0.000003 -1.005150 -78.557831 -0.227681 2.974120 0.000000 -0.000001 -1.582661 67.141326 -7.016949 -1.945009 25.456955 7.355613 -0.000011 
53.412598 6.186832 57.587898 -23.483241 2.037642 -2.108204 1.779139 -0.459799 0.308638 7.566483 -0.906337 0.625953 9.211623 -0.898771 0.636889 38.981075 0.371246 -0.152286 -18.247653 1.401444 -0.005473 33.752633 -75.156711 34.106410 93.617681 -68.682852 83.405086 0.000002 -0.000003 -0.000007 42.363722 -15.330308 5.098189 0.000002 0.000009 -2.999992 -4.999614 -7.998760 -0.000068 19.383367 70.620140 -19.871766 -70.019643 115.043362 68.920809 -0.000006 0.000003 0.000002 35.410262 18.809585 -4.891065 0.000007 -0.000021 3.000000 -4.999966 7.999084 -0.000032 -59.288637 -175.022846 4.146295 179.999950 -0.000005 -1.338002 107.470896 -1.280489 -3.240244 -0.000000 -0.000005 1.414959 66.497410 7.052115 1.898884 25.456957 -7.355614 0.000001 -61.272022 162.278123 -4.845246 -0.000020 -0.000004 -1.005150 -78.564162 -0.229061 2.975177 0.000000 -0.000001 -1.582540 67.142795 -7.016948 -1.945017 25.456957 7.355611 -0.000010 
53.413998 6.194595 57.590191 -23.477088 2.034802 -2.110526 1.778939 -0.459287 0.308312 7.566678 -0.905321 0.625422 9.211820 -0.897761 0.636377 39.054605 0.395171 -0.154343 -18.312432 1.383614 -0.004166 33.900722 -75.105798 34.274856 93.647501 -68.715692 83.441805 0.000003 -0.000002 -0.000007 42.382946 -15.324822 5.097294 0.000003 0.000010 -2.999988 -4.999614 -7.998758 -0.000071 19.471167 70.630781 -19.964672 -70.135552 115.018255 69.082897 -0.000002 0.000003 0.000002 35.420883 18.842195 -4.907725 0.000006 -0.000020 3.000000 -4.999962 7.999086 -0.000032 -59.275346 -175.029786 4.145300 179.999950 -0.000005 -1.338002 107.475690 -1.270867 -3.234661 -0.000001 -0.000004 1.414859 66.486332 7.052202 1.899815 25.456957 -7.355614 0.000000 -61.284180 162.278260 -4.842491 -0.000019 -0.000003 -1.005150 -78.570391 -0.230424 2.976262 -0.000000 -0.000001 -1.582410 67.144168 -7.016972 -1.944932 25.456952 7.355617 -0.000012 
53.408401 6.193893 57.582199 -23.470840 2.031953 -2.112825 1.778767 -0.458786 0.307988 7.566910 -0.904329 0.624895 9.212048 -0.896774 0.635871 39.128043 0.419321 -0.156522 -18.377208 1.365547 -0.002946 34.046686 -75.054770 34.441147 93.677643 -68.748320 83.478558 -0.000000 -0.000003 -0.000006 42.402166 -15.319416 5.096465 0.000003 0.000009 -2.999993 -4.999614 -7.998762 -0.000072 19.558925 70.641266 -20.057576 -70.251398 114.993420 69.245223 -0.000002 0.000003 0.000003 35.431528 18.874879 -4.924398 0.000007 -0.000020 3.000001 -4.999961 7.999085 -0.000030 -59.262252 -175.036766 4.144286 179.999950 -0.000005 -1.338999 107.480478 -1.261241 -3.229080 0.000000 -0.000005 1.414769 66.475369 7.052299 1.900840 25.456959 -7.355614 0.000000 -61.296529 162.278519 -4.839677 -0.000020 -0.000003 -1.005150 -78.576716 -0.231820 2.977298 -0.000001 -0.000000 -1.582279 67.145629 -7.016971 -1.944841 25.456953 7.355614 -0.000011 
53.408398 6.197632 57.585388 -23.464695 2.029075 -2.115093 1.778626 -0.458316 0.307666 7.567195 -0.903398 0.624384 9.212335 -0.895848 0.635376 39.201205 0.444042 -0.158922 -18.441775 1.346924 -0.001878 34.188676 -75.003441 34.603302 93.707497 -68.780251 83.513911 0.000000 -0.000003 -0.000005 42.421253 -15.314269 5.095798 0.000002 0.000010 -2.999990 -4.999616 -7.998760 -0.000070 19.646214 70.651258 -20.150043 -70.367566 114.968982 69.408690 -0.000002 0.000002 0.000002 35.442401 18.907946 -4.941274 0.000007 -0.000021 3.000001 -4.999964 7.999090 -0.000028 -59.250026 -175.043350 4.142653 179.999950 -0.000006 -1.338999 107.485143 -1.251909 -3.223482 -0.000001 -0.000005 1.414690 66.464728 7.052392 1.901742 25.456959 -7.355614 0.000001 -61.308782 162.279339 -4.837725 -0.000020 -0.000004 -1.005150 -78.583150 -0.233289 2.978261 -0.000000 -0.000001 -1.582170 67.147009 -7.016995 -1.944757 25.456952 7.355616 -0.000013 
53.408794 6.198227 57.587296 -23.458341 2.026172 -2.117308 1.778564 -0.457894 0.307350 7.567593 -0.902562 0.623894 9.212734 -0.895018 0.634902 39.273980 0.469677 -0.161638 -18.506251 1.327385 -0.001040 34.325433 -74.951948 34.760052 93.736977 -68.811280 83.547379 0.000003 -0.000002 -0.000007 42.440330 -15.309514 5.095456 0.000001 0.000010 -2.999990 -4.999616 -7.998759 -0.000068 19.732852 70.660663 -20.241942 -70.483208 114.945131 69.572867 -0.000002 0.000004 0.000002 35.453760 18.941590 -4.958513 0.000008 -0.000021 3.000000 -4.999966 7.999083 -0.000032 -59.238825 -175.050071 4.141116 179.999950 -0.000005 -1.338999 107.489501 -1.242546 -3.217865 -0.000001 -0.000004 1.414630 66.454394 7.052522 1.902634 25.456959 -7.355615 0.000001 -61.321677 162.279899 -4.834645 -0.000020 -0.000002 -1.005150 -78.589782 -0.234876 2.979062 0.000000 -0.000001 -1.582090 67.148471 -7.016956 -1.944755 25.456953 7.355615 -0.000010 
53.406395 6.194622 57.599190 -23.451992 2.023223 -2.119434 1.778572 -0.457540 0.307039 7.568123 -0.901860 0.623437 9.213263 -0.894321 0.634455 39.346066 0.496570 -0.164766 -18.570603 1.306607 -0.000494 34.455337 -74.900216 34.909705 93.766312 -68.840910 83.578409 0.000002 -0.000003 -0.000005 42.459219 -15.305274 5.095473 0.000003 0.000011 -2.999992 -4.999614 -7.998762 -0.000068 19.818494 70.669201 -20.332916 -70.598372 114.922140 69.738315 -0.000003 0.000004 0.000002 35.465665 18.976058 -4.976212 0.000007 -0.000020 3.000001 -4.999962 7.999086 -0.000031 -59.229085 -175.057024 4.139949 179.999950 -0.000004 -1.339995 107.493613 -1.233770 -3.213175 -0.000001 -0.000005 1.414589 66.444797 7.052618 1.903373 25.456957 -7.355614 0.000001 -61.334655 162.281115 -4.832174 -0.000020 -0.000005 -1.005150 -78.596619 -0.236628 2.979676 0.000001 -0.000000 -1.582039 67.149734 -7.017013 -1.944686 25.456953 7.355615 -0.000011 
